<svg width="368" height="335" xmlns="http://www.w3.org/2000/svg">
 <g>
  <title>background</title>
  <rect x="-1" y="-1" width="169.273086" height="154.273054" id="canvas_background" fill="none"/>
 </g>

 <g>
  <title>Layer 1</title>
  <path d="m24.4,0.752467c0.3,0.5 2.3,1.3 4.3,1.7c2.1,0.4 9.6,2.6 16.8,5c36.100001,11.8 58.300001,29.2 71.900001,56.200001c3.7,7.4 8.6,22.7 8.6,26.8c0,2.3 -0.1,2.3 -10.2,-1.7c-34.900001,-13.5 -70.700001,-13.8 -98.300001,-0.9c-4.4,2.1 -8.6,4.5 -9.4,5.5c-1.3,1.5 -1.2,1.6 1.5,0.6c6.5,-2.5 22.6,-6 32.5,-7c21.3,-2.3 44.700001,2.9 58.800001,12.9l3,2.2l-0.6,-3.6c-0.3,-1.9 -0.3,-3.5 0,-3.5c1.9,0 11.5,4.5 15.3,7.1c10.7,7.3 8.5,17.1 -3.5,15.5c-3.9,-0.5 -5.3,-0.3 -7.4,1.4c-2.5,2 -2.5,2 -10.9,0c-21.8,-5.1 -55.400001,-8.7 -71.800001,-7.5c-9.6,0.7 -22.6,3.1 -23.4,4.3c-0.2,0.4 8.2,0.7 18.7,0.8c33.4,0 60.900001,6.1 87.000001,19.2c6.5,3.3 11.7,5.8 11.7,5.7s-0.5,-1.6 -1.1,-3.4c-1.4,-4 -0.5,-7.7 2.5,-9.6c4,-2.6 9.6,0.5 15.7,8.9c4.1,5.6 3.9,7.6 -1,7.6c-5.4,0 -6.8,2 -3.8,5.5c1.8,2.1 3.5,2.9 7.3,3.2c4.6,0.5 5.2,0.9 7,4.1c5.3,10.1 18.8,25.8 24.6,28.8c3.9,2 3.5,1 -1.6,-5c-5.4,-6.4 -7.6,-11.4 -7.6,-17.5c0,-5.8 3.2,-11.1 11.9,-19.6c3.3,-3.3 6.1,-6.3 6.1,-6.7c0,-0.5 1.4,-3.4 3.2,-6.5l3.2,-5.7l3.6,7.6c3,6.4 4.5,8.3 9.5,12.1c10.3,7.9 13.5,14.9 10.8,23.9c-1.3,4.5 -7.3,12.7 -11,15.1c-3,1.9 -1,2.6 2.5,0.8c6.7,-3.4 17.6,-16.4 24.4,-28.9c1.2,-2.3 2.6,-3.2 5.5,-3.8c7.8,-1.3 11.7,-6.4 4.8,-6.4c-3.8,0 -6.1,-2.7 -5,-6c0.9,-2.8 8.2,-9 13.3,-11.2c3.5,-1.6 4.9,-1.8 6.8,-0.9c2.8,1.2 3,3.7 0.9,9.6c-0.8,2.2 -1.5,4.1 -1.5,4.2s3.5,-1.4 7.8,-3.4c14.3,-6.7 33.700001,-14.2 43.700001,-16.9c9.4,-2.6 11.6,-2.8 38.000001,-3.3c15.4,-0.4 27.3,-0.9 26.5,-1.3c-6.9,-3.2 -43.900001,-4.8 -62.200001,-2.8c-6.2,0.7 -17.6,2.5 -25.3,4.1c-16.7,3.4 -17.1,3.5 -17.8,0.9c-0.4,-1.7 -1.3,-2 -6.5,-1.8c-3.7,0.1 -6.7,-0.3 -7.6,-1.1c-3.4,-2.8 -1.1,-9.5 4.7,-14.2c2.7,-2 13.2,-5.9 16.3,-5.9c1.9,0 1.8,2.4 -0.1,4c-3.6,3 -0.3,1.7 5.2,-2c14.8,-9.9 35.900001,-13.9 56.800001,-11c3.9,0.6 12.6,2.4 19.4,4c6.8,1.7 12.6,2.8 12.8,2.6c0.6,-0.6 -11,-6 -18.2,-8.4c-17.2,-5.8 -41.500001,-7.3 -60.000001,-3.8c-11.2,2.2 -26.2,6.9 -33.700001,10.7c-3.2,1.6 -6.2,2.9 -6.8,2.9c-3.4,0 4.1,-23.4 11.5,-35.900001c6.1,-10.2 18,-23.1 28.7,-31.1c14.3,-10.6 37.100001,-20.8 56.300001,-25.1l6,-1.4l-7.4,-0.3c-18.5,-0.7 -45.600001,7.8 -70.600001,22.4c-5.5,3.2 -13.8,7.9 -18.4,10.5l-8.4,4.8l4.7,1.2c2.5,0.6 4.9,1.5 5.1,2c0.3,0.4 -0.9,2.8 -2.6,5.3c-5.2,7.8 -13,25.5 -15.5,35.400001c-2.7,10.7 -3.2,24.5 -1.3,36.200001c1.1,6.6 1.1,7 -1.4,11.3c-4.2,7.1 -9,10.7 -14.1,10.7c-8.1,0 -15.1,-6.5 -22,-20.5c-5.2,-10.4 -8.1,-22.5 -7.1,-29.6c0.4,-3.1 0.3,-4.9 -0.5,-5.4c-1.8,-1.1 -2.2,0 -3.7,9.7c-3.5,23.7 -9.7,38.000001 -18.8,43.400001c-6.7,3.9 -13.9,2.8 -19.8,-3.2c-5.2,-5.2 -6.1,-8.8 -4.6,-17.9c3.8,-22.4 0.2,-38.400001 -14.4,-65.000001l-4.9,-8.9l2.2,-1.8c1.2,-1 3.1,-1.8 4.1,-1.8s1.9,-0.5 1.9,-1c0,-1.8 -14.8,-10.8 -31.5,-19c-17.4,-8.6 -32.1,-14 -46.700001,-16.9c-11.6,-2.4 -26.3,-3.7 -25.4,-2.3l0,-0.000002z" id="svg_2" fill="#000000"/>
  <path d="m95.300001,145.699997c-4.2,0.8 -2.4,2 4,2.7c13,1.5 29.1,8.9 30.1,13.9c0.3,1.2 0.7,4.7 1,7.8c1.1,13.2 10.5,22.2 29.3,27.9c7.6,2.3 16.3,7.7 19.6,12.1c1.9,2.6 1.9,2.7 -0.7,10.2c-3,8.6 -4.7,19.1 -4,24.5c1.3,9.2 1.6,8.9 5.5,-6c4.2,-16.3 4.7,-17.7 6,-15.7c1.2,1.8 5.4,15.9 7,23.1c0.7,3.2 1.6,5.8 2.1,5.8c1.2,0 1,-15 -0.3,-21.2c-0.7,-2.9 -2.2,-7.7 -3.5,-10.7l-2.4,-5.4l2.7,-3.9c1.5,-2.2 4.8,-5.9 7.4,-8.2c4,-3.6 5.7,-4.4 10.3,-5c18.3,-2.1 28.2,-11.9 30.2,-29.9c0.6,-5.4 0.9,-5.9 5.4,-9.2c8.1,-5.9 20.3,-10.5 28.2,-10.5c4.9,0 5.8,-1.7 1.2,-2.6c-13.7,-2.5 -38.200001,10.5 -56.400001,30c-7.8,8.4 -19.3,19.7 -25.8,25.4c-6,5.3 -6.4,5.4 -8.9,4.1c-3.1,-1.7 -24.9,-23.1 -31.6,-31.1c-6,-7.2 -19.1,-17.7 -27.7,-22.2c-10.4,-5.5 -20.3,-7.5 -28.7,-5.9l0.000001,0zm46.900001,24.5c0.7,1.3 1.3,4.1 1.3,6.3c0,3.4 0.4,4 2.3,4.3c1.2,0.2 2.2,-0.1 2.2,-0.7s0.4,-1.1 0.9,-1.1c1.1,0 10.5,10.9 9.9,11.5c-0.2,0.3 -2.8,-0.1 -5.6,-0.8c-9.7,-2.6 -15.2,-8.9 -15.2,-17.7c0,-4.6 2.1,-5.5 4.2,-1.8zm90.800001,2.1c-0.1,7.7 -5.3,14.1 -14.1,17.2c-8,2.9 -8.6,2.1 -3.3,-4.3c2.7,-3.1 5,-5.9 5.1,-6.1c0.2,-0.3 0.9,0.1 1.5,0.7c0.7,0.7 2,1.2 3,1.2c1.5,0 1.8,-0.8 1.8,-4.5c0,-3.2 0.6,-5.1 2,-6.5c2.6,-2.6 4,-1.8 4,2.3z" id="svg_3" fill="#540000"/>
  <path d="m88.000001,157.899997c-4.9,1.5 -8.7,4 -12.4,8.1c-2.1,2.3 -3.6,4.4 -3.3,4.6c0.2,0.2 3,-0.9 6.3,-2.6c17.5,-8.9 32.8,-3.3 36.800001,13.4c0.9,3.7 -1,9.3 -3.5,10.1c-1,0.4 -1.9,1.4 -1.9,2.3c0,3.1 12.4,13.5 21.6,18.3c8.7,4.5 17.9,7.7 19,6.6c0.3,-0.3 -2.3,-2.5 -5.8,-4.8c-17.3,-11.8 -22.8,-22 -19.4,-36.400001l1.4,-5.9l-3.2,-3.1c-8.9,-8.3 -26.1,-13.5 -35.600001,-10.6l0,0.000001z" id="svg_4" fill="#540000"/>
  <path d="m267.600004,158.099997c-4.5,1.1 -15.8,6.9 -20,10.4l-2.9,2.4l1.3,6.9c2.8,15.2 -1.9,24.2 -19,35.700001c-8.8,5.9 -7.4,7.1 3.6,3c9.5,-3.6 20,-10.4 26.2,-16.9c5.3,-5.6 6.3,-7.6 3.8,-7.6c-2.3,0 -4.6,-4.1 -4.6,-8.3c0,-8.2 6.8,-16.7 15.4,-19.2c6.3,-1.9 13.5,-0.7 21.5,3.6c3,1.6 5.6,2.7 5.9,2.4c0.7,-0.7 -3.6,-5.7 -7.6,-8.6c-6.3,-4.6 -14.5,-5.9 -23.6,-3.8l0,-0.000001z" id="svg_5" fill="#540000"/>
  <path d="m128.500002,186.699998c1.2,5.1 3.6,9.1 8.3,14c4.6,4.7 17.8,15.3 19.2,15.3c1,0 3.8,10.5 4.5,16.8c0.3,2.9 2.3,10.1 4.4,16c4.6,12.9 5.6,17.8 4.1,21.6c-1.3,3.5 -0.5,4.6 1.6,2.4c2.8,-2.8 2.8,-9.7 0,-20.7c-2.1,-8.3 -2.6,-12.5 -2.6,-22.6c0,-7.2 0.4,-12.6 1,-13c1.5,-0.9 1.2,-4.1 -0.5,-5.5c-0.9,-0.7 -3.8,-1.7 -6.5,-2.1c-10.8,-1.7 -25.3,-11.4 -30.6,-20.5c-3,-5.1 -3.9,-5.6 -2.9,-1.7z" id="svg_6" fill="#000000"/>
  <path d="m238.600004,188.299998c-5.4,9.4 -19.1,18.7 -30.8,21.1c-7.1,1.4 -10.1,4.2 -7.3,6.9c2.6,2.7 2.1,22.9 -1,35.200001c-2.9,11.5 -3.1,17.1 -0.9,20.3c2.1,3.1 3.6,2.8 2.3,-0.5c-1.5,-3.9 -0.4,-9.4 4.1,-22.5c2.2,-6.2 4.2,-13.3 4.5,-15.8c1.5,-12.5 2.5,-14.9 7.9,-18.7c13.7,-9.9 21.1,-18 23.6,-25.6c1.7,-5.4 0.7,-5.6 -2.4,-0.4l0,-0.000001z" id="svg_7" fill="#000000"/>
  <path d="m152.200002,236.699999c3.4,6.9 4.8,14.4 5.1,25.8c0.2,10.4 -0.9,12.2 -5.1,7.8l-2.8,-3.1l-3.2,4.6c-6,9 -6.1,9.5 -1.3,14.7c5.5,6 11.7,15.7 21.4,33.5c7.3,13.4 7.8,14.1 7.3,9.9c-0.7,-6.1 -6,-18.5 -15.1,-35.000001c-4.1,-7.6 -7.5,-14 -7.5,-14.3s0.9,-1 2.1,-1.6c1.6,-0.9 2.6,-0.8 4.5,0.5c1.5,1 3.3,1.3 4.6,0.9c2,-0.6 2.1,-1 1.4,-12c-1,-17.5 -5.4,-32.1 -10.8,-35.800001c-3.6,-2.5 -3.6,-2 -0.6,4.1l0,0.000002z" id="svg_8" fill="#000000"/>
  <path d="m217.700003,231.099998c-6,3.5 -10.5,18 -11.4,36.100001l-0.6,12.8l2.6,0c1.4,0 2.9,-0.5 3.2,-1c1,-1.6 5.5,-1.1 6.2,0.7c0.4,0.9 -0.2,3 -1.2,4.7c-6.2,10.6 -16.8,32.3 -18.9,38.800001c-2.9,8.4 -3.1,9.8 -1.6,9.8c0.6,0 1,-0.4 1,-1c0,-1.5 15.4,-29.2 20.2,-36.200001c2.3,-3.5 5.9,-8.1 8,-10.4l3.8,-4.1l-2.5,-4.9c-1.4,-2.7 -3.4,-6 -4.4,-7.3l-1.9,-2.5l-2.4,2.9c-4.1,4.7 -5.8,3 -5.8,-5.8c0,-12.4 2.9,-24.7 7.2,-31c2,-2.8 1.5,-3.4 -1.5,-1.6l0,-0.000001z" id="svg_9" fill="#000000"/>
  <path d="m164.500002,282.799999c-4.6,2.9 -5.8,4.7 -4.6,7.1c1.5,2.8 6,6.1 8.3,6.1c1.9,0 1.9,-0.1 -0.1,-2.6c-1.6,-2.1 -1.8,-3 -1,-4c3.1,-3.8 8.3,0.9 8.3,7.4c0,2.7 -0.8,4.2 -3.7,6.8c-2,1.9 -3.7,3.5 -3.7,3.7c0,0.1 2.4,2.8 5.3,5.9s6.8,8.6 8.7,12.1l3.4,6.4l2.3,-5c2.5,-5.2 11.8,-17.7 13.4,-17.7c1.8,0 0.9,-1.8 -2.6,-5.3c-2.7,-2.7 -3.5,-4.3 -3.5,-7c0,-4.3 3.3,-8.7 6.6,-8.7c3.1,0 3.2,2.5 0.2,5.7c-2.7,2.9 -1.8,3.9 2.1,2.3s5.9,-3.9 6.7,-7.7c0.5,-2.6 0.2,-3.4 -1.9,-4.8c-8.7,-5.7 -18.2,-0.7 -20.8,10.9c-1,4.5 -0.9,5.7 0.5,8.4c0.9,1.7 1.6,4 1.6,5.1c0,4.4 -7.8,5.2 -10,1c-0.9,-1.6 -0.7,-2.7 0.9,-5.5c3.7,-6.3 2.4,-12.9 -3.7,-18.7c-3.8,-3.6 -8.8,-4.4 -12.7,-1.9z" id="svg_10" fill="#540000"/>
 </g>
</svg>